<mxfile host="app.diagrams.net" modified="2023-06-23T17:59:45.512Z" agent="Mozilla/5.0 (Windows NT 10.0; Win64; x64) AppleWebKit/537.36 (KHTML, like Gecko) Chrome/114.0.0.0 Safari/537.36" etag="sTRiponjlgv3DVdju2aJ" version="21.5.0" type="device">
  <diagram id="R2lEEEUBdFMjLlhIrx00" name="Page-1">
    <mxGraphModel dx="1050" dy="1673" grid="1" gridSize="10" guides="1" tooltips="1" connect="1" arrows="1" fold="1" page="1" pageScale="1" pageWidth="850" pageHeight="1100" math="0" shadow="0" extFonts="Permanent Marker^https://fonts.googleapis.com/css?family=Permanent+Marker">
      <root>
        <mxCell id="0" />
        <mxCell id="1" parent="0" />
        <mxCell id="ApuZcD2Zt2GJH8bK78pd-2" value="college" style="rounded=1;whiteSpace=wrap;html=1;strokeColor=#BAC8D3;fontColor=#EEEEEE;fillColor=#09555B;fontSize=18;" vertex="1" parent="1">
          <mxGeometry x="630" y="350" width="120" height="60" as="geometry" />
        </mxCell>
        <mxCell id="ApuZcD2Zt2GJH8bK78pd-16" style="edgeStyle=orthogonalEdgeStyle;rounded=0;orthogonalLoop=1;jettySize=auto;html=1;exitX=0.5;exitY=0;exitDx=0;exitDy=0;entryX=0.5;entryY=1;entryDx=0;entryDy=0;strokeColor=#0B4D6A;elbow=vertical;" edge="1" parent="1" source="ApuZcD2Zt2GJH8bK78pd-3" target="ApuZcD2Zt2GJH8bK78pd-10">
          <mxGeometry relative="1" as="geometry" />
        </mxCell>
        <mxCell id="ApuZcD2Zt2GJH8bK78pd-33" style="edgeStyle=orthogonalEdgeStyle;rounded=0;orthogonalLoop=1;jettySize=auto;html=1;exitX=0;exitY=0.5;exitDx=0;exitDy=0;entryX=0;entryY=0.5;entryDx=0;entryDy=0;strokeColor=#0B4D6A;" edge="1" parent="1" source="ApuZcD2Zt2GJH8bK78pd-3" target="ApuZcD2Zt2GJH8bK78pd-31">
          <mxGeometry relative="1" as="geometry" />
        </mxCell>
        <mxCell id="ApuZcD2Zt2GJH8bK78pd-3" value="professor" style="rounded=1;whiteSpace=wrap;html=1;strokeColor=#BAC8D3;fontColor=#EEEEEE;fillColor=#09555B;fontSize=18;" vertex="1" parent="1">
          <mxGeometry x="220" y="350" width="120" height="60" as="geometry" />
        </mxCell>
        <mxCell id="ApuZcD2Zt2GJH8bK78pd-4" value="course" style="rounded=1;whiteSpace=wrap;html=1;strokeColor=#BAC8D3;fontColor=#EEEEEE;fillColor=#09555B;fontSize=18;" vertex="1" parent="1">
          <mxGeometry x="560" y="70" width="120" height="60" as="geometry" />
        </mxCell>
        <mxCell id="ApuZcD2Zt2GJH8bK78pd-87" style="edgeStyle=orthogonalEdgeStyle;curved=1;rounded=0;orthogonalLoop=1;jettySize=auto;html=1;exitX=0;exitY=0.25;exitDx=0;exitDy=0;entryX=1;entryY=0.5;entryDx=0;entryDy=0;strokeColor=#0B4D6A;" edge="1" parent="1" source="ApuZcD2Zt2GJH8bK78pd-5" target="ApuZcD2Zt2GJH8bK78pd-81">
          <mxGeometry relative="1" as="geometry" />
        </mxCell>
        <mxCell id="ApuZcD2Zt2GJH8bK78pd-88" style="edgeStyle=orthogonalEdgeStyle;curved=1;rounded=0;orthogonalLoop=1;jettySize=auto;html=1;exitX=0;exitY=1;exitDx=0;exitDy=0;entryX=1;entryY=0.5;entryDx=0;entryDy=0;strokeColor=#0B4D6A;" edge="1" parent="1" source="ApuZcD2Zt2GJH8bK78pd-5" target="ApuZcD2Zt2GJH8bK78pd-82">
          <mxGeometry relative="1" as="geometry" />
        </mxCell>
        <mxCell id="ApuZcD2Zt2GJH8bK78pd-89" style="edgeStyle=orthogonalEdgeStyle;curved=1;rounded=0;orthogonalLoop=1;jettySize=auto;html=1;exitX=0.25;exitY=1;exitDx=0;exitDy=0;entryX=0.5;entryY=0;entryDx=0;entryDy=0;strokeColor=#0B4D6A;" edge="1" parent="1" source="ApuZcD2Zt2GJH8bK78pd-5" target="ApuZcD2Zt2GJH8bK78pd-83">
          <mxGeometry relative="1" as="geometry" />
        </mxCell>
        <mxCell id="ApuZcD2Zt2GJH8bK78pd-90" style="edgeStyle=orthogonalEdgeStyle;curved=1;rounded=0;orthogonalLoop=1;jettySize=auto;html=1;exitX=0.75;exitY=1;exitDx=0;exitDy=0;entryX=0.5;entryY=0;entryDx=0;entryDy=0;strokeColor=#0B4D6A;" edge="1" parent="1" source="ApuZcD2Zt2GJH8bK78pd-5" target="ApuZcD2Zt2GJH8bK78pd-84">
          <mxGeometry relative="1" as="geometry" />
        </mxCell>
        <mxCell id="ApuZcD2Zt2GJH8bK78pd-94" style="edgeStyle=orthogonalEdgeStyle;curved=1;rounded=0;orthogonalLoop=1;jettySize=auto;html=1;exitX=1;exitY=0.75;exitDx=0;exitDy=0;entryX=0.5;entryY=0;entryDx=0;entryDy=0;strokeColor=#0B4D6A;" edge="1" parent="1" source="ApuZcD2Zt2GJH8bK78pd-5" target="ApuZcD2Zt2GJH8bK78pd-93">
          <mxGeometry relative="1" as="geometry" />
        </mxCell>
        <mxCell id="ApuZcD2Zt2GJH8bK78pd-5" value="employee" style="rounded=1;whiteSpace=wrap;html=1;strokeColor=#BAC8D3;fontColor=#EEEEEE;fillColor=#09555B;fontSize=18;" vertex="1" parent="1">
          <mxGeometry x="410" y="520" width="120" height="60" as="geometry" />
        </mxCell>
        <mxCell id="ApuZcD2Zt2GJH8bK78pd-15" style="edgeStyle=orthogonalEdgeStyle;rounded=0;orthogonalLoop=1;jettySize=auto;html=1;entryX=0;entryY=0.5;entryDx=0;entryDy=0;strokeColor=#0B4D6A;elbow=vertical;" edge="1" parent="1" source="ApuZcD2Zt2GJH8bK78pd-6" target="ApuZcD2Zt2GJH8bK78pd-10">
          <mxGeometry relative="1" as="geometry" />
        </mxCell>
        <mxCell id="ApuZcD2Zt2GJH8bK78pd-6" value="student" style="rounded=1;whiteSpace=wrap;html=1;strokeColor=#BAC8D3;fontColor=#EEEEEE;fillColor=#09555B;fontSize=18;" vertex="1" parent="1">
          <mxGeometry x="100" y="70" width="120" height="60" as="geometry" />
        </mxCell>
        <mxCell id="ApuZcD2Zt2GJH8bK78pd-17" style="edgeStyle=orthogonalEdgeStyle;rounded=0;orthogonalLoop=1;jettySize=auto;html=1;entryX=0.323;entryY=1.037;entryDx=0;entryDy=0;entryPerimeter=0;strokeColor=#0B4D6A;elbow=vertical;" edge="1" parent="1" source="ApuZcD2Zt2GJH8bK78pd-10" target="ApuZcD2Zt2GJH8bK78pd-4">
          <mxGeometry relative="1" as="geometry" />
        </mxCell>
        <mxCell id="ApuZcD2Zt2GJH8bK78pd-10" value="selection" style="rhombus;whiteSpace=wrap;html=1;strokeColor=#BAC8D3;fontColor=#EEEEEE;fillColor=#09555B;" vertex="1" parent="1">
          <mxGeometry x="360" y="180" width="80" height="80" as="geometry" />
        </mxCell>
        <mxCell id="ApuZcD2Zt2GJH8bK78pd-20" style="edgeStyle=orthogonalEdgeStyle;rounded=0;orthogonalLoop=1;jettySize=auto;html=1;exitX=0;exitY=0.5;exitDx=0;exitDy=0;entryX=0.637;entryY=0.01;entryDx=0;entryDy=0;entryPerimeter=0;strokeColor=#0B4D6A;elbow=vertical;" edge="1" parent="1" source="ApuZcD2Zt2GJH8bK78pd-18" target="ApuZcD2Zt2GJH8bK78pd-6">
          <mxGeometry relative="1" as="geometry" />
        </mxCell>
        <mxCell id="ApuZcD2Zt2GJH8bK78pd-21" style="edgeStyle=orthogonalEdgeStyle;rounded=0;orthogonalLoop=1;jettySize=auto;html=1;exitX=1;exitY=0.5;exitDx=0;exitDy=0;entryX=0.7;entryY=0.05;entryDx=0;entryDy=0;entryPerimeter=0;strokeColor=#0B4D6A;elbow=vertical;" edge="1" parent="1" source="ApuZcD2Zt2GJH8bK78pd-18" target="ApuZcD2Zt2GJH8bK78pd-2">
          <mxGeometry relative="1" as="geometry" />
        </mxCell>
        <mxCell id="ApuZcD2Zt2GJH8bK78pd-18" value="membership" style="rhombus;whiteSpace=wrap;html=1;strokeColor=#BAC8D3;fontColor=#EEEEEE;fillColor=#09555B;" vertex="1" parent="1">
          <mxGeometry x="370" y="10" width="80" height="60" as="geometry" />
        </mxCell>
        <mxCell id="ApuZcD2Zt2GJH8bK78pd-23" style="rounded=0;orthogonalLoop=1;jettySize=auto;html=1;exitX=0;exitY=0.5;exitDx=0;exitDy=0;entryX=1;entryY=0.5;entryDx=0;entryDy=0;strokeColor=#0B4D6A;elbow=vertical;" edge="1" parent="1" source="ApuZcD2Zt2GJH8bK78pd-22" target="ApuZcD2Zt2GJH8bK78pd-3">
          <mxGeometry relative="1" as="geometry" />
        </mxCell>
        <mxCell id="ApuZcD2Zt2GJH8bK78pd-24" style="rounded=0;orthogonalLoop=1;jettySize=auto;html=1;exitX=1;exitY=0.5;exitDx=0;exitDy=0;entryX=0;entryY=0.5;entryDx=0;entryDy=0;strokeColor=#0B4D6A;elbow=vertical;" edge="1" parent="1" source="ApuZcD2Zt2GJH8bK78pd-22" target="ApuZcD2Zt2GJH8bK78pd-2">
          <mxGeometry relative="1" as="geometry" />
        </mxCell>
        <mxCell id="ApuZcD2Zt2GJH8bK78pd-22" value="membership" style="rhombus;whiteSpace=wrap;html=1;strokeColor=#BAC8D3;fontColor=#EEEEEE;fillColor=#09555B;" vertex="1" parent="1">
          <mxGeometry x="450" y="350" width="80" height="60" as="geometry" />
        </mxCell>
        <mxCell id="ApuZcD2Zt2GJH8bK78pd-26" style="rounded=0;orthogonalLoop=1;jettySize=auto;html=1;exitX=0;exitY=0.5;exitDx=0;exitDy=0;entryX=1;entryY=0.5;entryDx=0;entryDy=0;strokeColor=#0B4D6A;elbow=vertical;" edge="1" parent="1" source="ApuZcD2Zt2GJH8bK78pd-25" target="ApuZcD2Zt2GJH8bK78pd-5">
          <mxGeometry relative="1" as="geometry" />
        </mxCell>
        <mxCell id="ApuZcD2Zt2GJH8bK78pd-27" style="rounded=0;orthogonalLoop=1;jettySize=auto;html=1;exitX=0.5;exitY=0;exitDx=0;exitDy=0;strokeColor=#0B4D6A;elbow=vertical;" edge="1" parent="1" source="ApuZcD2Zt2GJH8bK78pd-25">
          <mxGeometry relative="1" as="geometry">
            <mxPoint x="700" y="410" as="targetPoint" />
          </mxGeometry>
        </mxCell>
        <mxCell id="ApuZcD2Zt2GJH8bK78pd-25" value="membership" style="rhombus;whiteSpace=wrap;html=1;strokeColor=#BAC8D3;fontColor=#EEEEEE;fillColor=#09555B;" vertex="1" parent="1">
          <mxGeometry x="660" y="520" width="80" height="60" as="geometry" />
        </mxCell>
        <mxCell id="ApuZcD2Zt2GJH8bK78pd-29" style="rounded=0;orthogonalLoop=1;jettySize=auto;html=1;exitX=0.5;exitY=0;exitDx=0;exitDy=0;entryX=0.667;entryY=1;entryDx=0;entryDy=0;entryPerimeter=0;strokeColor=#0B4D6A;elbow=vertical;" edge="1" parent="1" source="ApuZcD2Zt2GJH8bK78pd-28" target="ApuZcD2Zt2GJH8bK78pd-4">
          <mxGeometry relative="1" as="geometry" />
        </mxCell>
        <mxCell id="ApuZcD2Zt2GJH8bK78pd-30" style="rounded=0;orthogonalLoop=1;jettySize=auto;html=1;exitX=0.5;exitY=1;exitDx=0;exitDy=0;strokeColor=#0B4D6A;elbow=vertical;entryX=0.093;entryY=-0.043;entryDx=0;entryDy=0;entryPerimeter=0;" edge="1" parent="1" source="ApuZcD2Zt2GJH8bK78pd-28" target="ApuZcD2Zt2GJH8bK78pd-2">
          <mxGeometry relative="1" as="geometry">
            <mxPoint x="640" y="340" as="targetPoint" />
          </mxGeometry>
        </mxCell>
        <mxCell id="ApuZcD2Zt2GJH8bK78pd-28" value="membership" style="rhombus;whiteSpace=wrap;html=1;strokeColor=#BAC8D3;fontColor=#EEEEEE;fillColor=#09555B;" vertex="1" parent="1">
          <mxGeometry x="600" y="220" width="80" height="60" as="geometry" />
        </mxCell>
        <mxCell id="ApuZcD2Zt2GJH8bK78pd-34" style="edgeStyle=orthogonalEdgeStyle;rounded=0;orthogonalLoop=1;jettySize=auto;html=1;exitX=1;exitY=0.5;exitDx=0;exitDy=0;entryX=1;entryY=0.75;entryDx=0;entryDy=0;strokeColor=#0B4D6A;" edge="1" parent="1" source="ApuZcD2Zt2GJH8bK78pd-31" target="ApuZcD2Zt2GJH8bK78pd-3">
          <mxGeometry relative="1" as="geometry" />
        </mxCell>
        <mxCell id="ApuZcD2Zt2GJH8bK78pd-31" value="superviser" style="rhombus;whiteSpace=wrap;html=1;strokeColor=#BAC8D3;fontColor=#EEEEEE;fillColor=#09555B;" vertex="1" parent="1">
          <mxGeometry x="240" y="430" width="80" height="50" as="geometry" />
        </mxCell>
        <mxCell id="ApuZcD2Zt2GJH8bK78pd-36" style="edgeStyle=orthogonalEdgeStyle;rounded=0;orthogonalLoop=1;jettySize=auto;html=1;exitX=0.5;exitY=0;exitDx=0;exitDy=0;entryX=0;entryY=0;entryDx=0;entryDy=0;strokeColor=#0B4D6A;" edge="1" parent="1" source="ApuZcD2Zt2GJH8bK78pd-35" target="ApuZcD2Zt2GJH8bK78pd-4">
          <mxGeometry relative="1" as="geometry" />
        </mxCell>
        <mxCell id="ApuZcD2Zt2GJH8bK78pd-37" style="edgeStyle=elbowEdgeStyle;rounded=0;orthogonalLoop=1;jettySize=auto;html=1;exitX=0.5;exitY=1;exitDx=0;exitDy=0;entryX=0.137;entryY=1.05;entryDx=0;entryDy=0;entryPerimeter=0;strokeColor=#0B4D6A;elbow=vertical;" edge="1" parent="1" source="ApuZcD2Zt2GJH8bK78pd-35" target="ApuZcD2Zt2GJH8bK78pd-4">
          <mxGeometry relative="1" as="geometry" />
        </mxCell>
        <mxCell id="ApuZcD2Zt2GJH8bK78pd-35" value="prerequisite" style="rhombus;whiteSpace=wrap;html=1;strokeColor=#BAC8D3;fontColor=#EEEEEE;fillColor=#09555B;" vertex="1" parent="1">
          <mxGeometry x="450" y="80" width="80" height="50" as="geometry" />
        </mxCell>
        <mxCell id="ApuZcD2Zt2GJH8bK78pd-44" style="edgeStyle=entityRelationEdgeStyle;rounded=0;orthogonalLoop=1;jettySize=auto;html=1;exitX=0.5;exitY=1;exitDx=0;exitDy=0;entryX=0.25;entryY=0;entryDx=0;entryDy=0;strokeColor=#0B4D6A;" edge="1" parent="1" source="ApuZcD2Zt2GJH8bK78pd-38" target="ApuZcD2Zt2GJH8bK78pd-6">
          <mxGeometry relative="1" as="geometry" />
        </mxCell>
        <mxCell id="ApuZcD2Zt2GJH8bK78pd-38" value="address" style="ellipse;whiteSpace=wrap;html=1;strokeColor=#BAC8D3;fontColor=#EEEEEE;fillColor=#09555B;" vertex="1" parent="1">
          <mxGeometry x="90" y="10" width="50" height="40" as="geometry" />
        </mxCell>
        <mxCell id="ApuZcD2Zt2GJH8bK78pd-45" style="edgeStyle=orthogonalEdgeStyle;rounded=0;orthogonalLoop=1;jettySize=auto;html=1;exitX=1;exitY=1;exitDx=0;exitDy=0;entryX=0.023;entryY=0.383;entryDx=0;entryDy=0;entryPerimeter=0;strokeColor=#0B4D6A;curved=1;" edge="1" parent="1" source="ApuZcD2Zt2GJH8bK78pd-39" target="ApuZcD2Zt2GJH8bK78pd-6">
          <mxGeometry relative="1" as="geometry" />
        </mxCell>
        <mxCell id="ApuZcD2Zt2GJH8bK78pd-39" value="number" style="ellipse;whiteSpace=wrap;html=1;strokeColor=#BAC8D3;fontColor=#EEEEEE;fillColor=#09555B;" vertex="1" parent="1">
          <mxGeometry x="40" y="40" width="50" height="40" as="geometry" />
        </mxCell>
        <mxCell id="ApuZcD2Zt2GJH8bK78pd-46" style="edgeStyle=orthogonalEdgeStyle;rounded=0;orthogonalLoop=1;jettySize=auto;html=1;exitX=1;exitY=0.5;exitDx=0;exitDy=0;entryX=0;entryY=0.75;entryDx=0;entryDy=0;strokeColor=#0B4D6A;curved=1;" edge="1" parent="1" source="ApuZcD2Zt2GJH8bK78pd-40" target="ApuZcD2Zt2GJH8bK78pd-6">
          <mxGeometry relative="1" as="geometry" />
        </mxCell>
        <mxCell id="ApuZcD2Zt2GJH8bK78pd-40" value="national&lt;br&gt;code" style="ellipse;whiteSpace=wrap;html=1;strokeColor=#BAC8D3;fontColor=#EEEEEE;fillColor=#09555B;" vertex="1" parent="1">
          <mxGeometry x="30" y="90" width="50" height="40" as="geometry" />
        </mxCell>
        <mxCell id="ApuZcD2Zt2GJH8bK78pd-47" style="edgeStyle=orthogonalEdgeStyle;rounded=0;orthogonalLoop=1;jettySize=auto;html=1;exitX=1;exitY=0;exitDx=0;exitDy=0;entryX=0.25;entryY=1;entryDx=0;entryDy=0;strokeColor=#0B4D6A;curved=1;" edge="1" parent="1" source="ApuZcD2Zt2GJH8bK78pd-41" target="ApuZcD2Zt2GJH8bK78pd-6">
          <mxGeometry relative="1" as="geometry" />
        </mxCell>
        <mxCell id="ApuZcD2Zt2GJH8bK78pd-41" value="brith_date" style="ellipse;whiteSpace=wrap;html=1;strokeColor=#BAC8D3;fontColor=#EEEEEE;fillColor=#09555B;" vertex="1" parent="1">
          <mxGeometry x="40" y="150" width="60" height="40" as="geometry" />
        </mxCell>
        <mxCell id="ApuZcD2Zt2GJH8bK78pd-48" style="edgeStyle=orthogonalEdgeStyle;rounded=0;orthogonalLoop=1;jettySize=auto;html=1;exitX=1;exitY=0;exitDx=0;exitDy=0;entryX=0.643;entryY=1.063;entryDx=0;entryDy=0;entryPerimeter=0;strokeColor=#0B4D6A;curved=1;" edge="1" parent="1" source="ApuZcD2Zt2GJH8bK78pd-42" target="ApuZcD2Zt2GJH8bK78pd-6">
          <mxGeometry relative="1" as="geometry" />
        </mxCell>
        <mxCell id="ApuZcD2Zt2GJH8bK78pd-42" value="id&lt;br&gt;___" style="ellipse;whiteSpace=wrap;html=1;strokeColor=#BAC8D3;fontColor=#EEEEEE;fillColor=#09555B;" vertex="1" parent="1">
          <mxGeometry x="130" y="160" width="50" height="40" as="geometry" />
        </mxCell>
        <mxCell id="ApuZcD2Zt2GJH8bK78pd-49" style="edgeStyle=orthogonalEdgeStyle;rounded=0;orthogonalLoop=1;jettySize=auto;html=1;exitX=0.5;exitY=0;exitDx=0;exitDy=0;entryX=1;entryY=0.75;entryDx=0;entryDy=0;strokeColor=#0B4D6A;curved=1;" edge="1" parent="1" source="ApuZcD2Zt2GJH8bK78pd-43" target="ApuZcD2Zt2GJH8bK78pd-6">
          <mxGeometry relative="1" as="geometry" />
        </mxCell>
        <mxCell id="ApuZcD2Zt2GJH8bK78pd-52" style="edgeStyle=orthogonalEdgeStyle;curved=1;rounded=0;orthogonalLoop=1;jettySize=auto;html=1;exitX=0.5;exitY=1;exitDx=0;exitDy=0;entryX=0.5;entryY=0;entryDx=0;entryDy=0;strokeColor=#0B4D6A;" edge="1" parent="1" source="ApuZcD2Zt2GJH8bK78pd-43" target="ApuZcD2Zt2GJH8bK78pd-50">
          <mxGeometry relative="1" as="geometry" />
        </mxCell>
        <mxCell id="ApuZcD2Zt2GJH8bK78pd-53" style="edgeStyle=orthogonalEdgeStyle;curved=1;rounded=0;orthogonalLoop=1;jettySize=auto;html=1;exitX=1;exitY=1;exitDx=0;exitDy=0;entryX=0.336;entryY=-0.033;entryDx=0;entryDy=0;entryPerimeter=0;strokeColor=#0B4D6A;" edge="1" parent="1" source="ApuZcD2Zt2GJH8bK78pd-43" target="ApuZcD2Zt2GJH8bK78pd-51">
          <mxGeometry relative="1" as="geometry" />
        </mxCell>
        <mxCell id="ApuZcD2Zt2GJH8bK78pd-43" value="name" style="ellipse;whiteSpace=wrap;html=1;strokeColor=#BAC8D3;fontColor=#EEEEEE;fillColor=#09555B;" vertex="1" parent="1">
          <mxGeometry x="200" y="160" width="50" height="40" as="geometry" />
        </mxCell>
        <mxCell id="ApuZcD2Zt2GJH8bK78pd-50" value="first_nam" style="ellipse;whiteSpace=wrap;html=1;strokeColor=#BAC8D3;fontColor=#EEEEEE;fillColor=#09555B;" vertex="1" parent="1">
          <mxGeometry x="170" y="210" width="50" height="30" as="geometry" />
        </mxCell>
        <mxCell id="ApuZcD2Zt2GJH8bK78pd-51" value="last_nam" style="ellipse;whiteSpace=wrap;html=1;strokeColor=#BAC8D3;fontColor=#EEEEEE;fillColor=#09555B;" vertex="1" parent="1">
          <mxGeometry x="230" y="210" width="50" height="30" as="geometry" />
        </mxCell>
        <mxCell id="ApuZcD2Zt2GJH8bK78pd-63" style="edgeStyle=orthogonalEdgeStyle;curved=1;rounded=0;orthogonalLoop=1;jettySize=auto;html=1;exitX=0.5;exitY=1;exitDx=0;exitDy=0;entryX=0.31;entryY=0.023;entryDx=0;entryDy=0;entryPerimeter=0;strokeColor=#0B4D6A;" edge="1" parent="1" source="ApuZcD2Zt2GJH8bK78pd-54" target="ApuZcD2Zt2GJH8bK78pd-3">
          <mxGeometry relative="1" as="geometry" />
        </mxCell>
        <mxCell id="ApuZcD2Zt2GJH8bK78pd-54" value="address" style="ellipse;whiteSpace=wrap;html=1;strokeColor=#BAC8D3;fontColor=#EEEEEE;fillColor=#09555B;" vertex="1" parent="1">
          <mxGeometry x="230" y="290" width="50" height="40" as="geometry" />
        </mxCell>
        <mxCell id="ApuZcD2Zt2GJH8bK78pd-64" style="edgeStyle=orthogonalEdgeStyle;curved=1;rounded=0;orthogonalLoop=1;jettySize=auto;html=1;exitX=1;exitY=1;exitDx=0;exitDy=0;entryX=0;entryY=0;entryDx=0;entryDy=0;strokeColor=#0B4D6A;" edge="1" parent="1" source="ApuZcD2Zt2GJH8bK78pd-55" target="ApuZcD2Zt2GJH8bK78pd-3">
          <mxGeometry relative="1" as="geometry" />
        </mxCell>
        <mxCell id="ApuZcD2Zt2GJH8bK78pd-55" value="number" style="ellipse;whiteSpace=wrap;html=1;strokeColor=#BAC8D3;fontColor=#EEEEEE;fillColor=#09555B;" vertex="1" parent="1">
          <mxGeometry x="170" y="300" width="50" height="40" as="geometry" />
        </mxCell>
        <mxCell id="ApuZcD2Zt2GJH8bK78pd-70" style="edgeStyle=orthogonalEdgeStyle;curved=1;rounded=0;orthogonalLoop=1;jettySize=auto;html=1;exitX=0;exitY=0.5;exitDx=0;exitDy=0;strokeColor=#0B4D6A;" edge="1" parent="1" source="ApuZcD2Zt2GJH8bK78pd-56" target="ApuZcD2Zt2GJH8bK78pd-3">
          <mxGeometry relative="1" as="geometry" />
        </mxCell>
        <mxCell id="ApuZcD2Zt2GJH8bK78pd-56" value="national&lt;br&gt;code" style="ellipse;whiteSpace=wrap;html=1;strokeColor=#BAC8D3;fontColor=#EEEEEE;fillColor=#09555B;" vertex="1" parent="1">
          <mxGeometry x="340" y="310" width="50" height="40" as="geometry" />
        </mxCell>
        <mxCell id="ApuZcD2Zt2GJH8bK78pd-69" style="edgeStyle=orthogonalEdgeStyle;curved=1;rounded=0;orthogonalLoop=1;jettySize=auto;html=1;exitX=0.5;exitY=0;exitDx=0;exitDy=0;strokeColor=#0B4D6A;" edge="1" parent="1" source="ApuZcD2Zt2GJH8bK78pd-57">
          <mxGeometry relative="1" as="geometry">
            <mxPoint x="350" y="390" as="targetPoint" />
          </mxGeometry>
        </mxCell>
        <mxCell id="ApuZcD2Zt2GJH8bK78pd-57" value="brith_date" style="ellipse;whiteSpace=wrap;html=1;strokeColor=#BAC8D3;fontColor=#EEEEEE;fillColor=#09555B;" vertex="1" parent="1">
          <mxGeometry x="360" y="400" width="60" height="40" as="geometry" />
        </mxCell>
        <mxCell id="ApuZcD2Zt2GJH8bK78pd-65" style="edgeStyle=orthogonalEdgeStyle;curved=1;rounded=0;orthogonalLoop=1;jettySize=auto;html=1;exitX=1;exitY=0.5;exitDx=0;exitDy=0;entryX=0;entryY=0.25;entryDx=0;entryDy=0;strokeColor=#0B4D6A;" edge="1" parent="1" source="ApuZcD2Zt2GJH8bK78pd-58" target="ApuZcD2Zt2GJH8bK78pd-3">
          <mxGeometry relative="1" as="geometry" />
        </mxCell>
        <mxCell id="ApuZcD2Zt2GJH8bK78pd-58" value="id&lt;br&gt;___" style="ellipse;whiteSpace=wrap;html=1;strokeColor=#BAC8D3;fontColor=#EEEEEE;fillColor=#09555B;" vertex="1" parent="1">
          <mxGeometry x="140" y="340" width="50" height="40" as="geometry" />
        </mxCell>
        <mxCell id="ApuZcD2Zt2GJH8bK78pd-66" style="edgeStyle=orthogonalEdgeStyle;curved=1;rounded=0;orthogonalLoop=1;jettySize=auto;html=1;exitX=1;exitY=0;exitDx=0;exitDy=0;entryX=0;entryY=0.75;entryDx=0;entryDy=0;strokeColor=#0B4D6A;" edge="1" parent="1" source="ApuZcD2Zt2GJH8bK78pd-59" target="ApuZcD2Zt2GJH8bK78pd-3">
          <mxGeometry relative="1" as="geometry" />
        </mxCell>
        <mxCell id="ApuZcD2Zt2GJH8bK78pd-67" style="edgeStyle=orthogonalEdgeStyle;curved=1;rounded=0;orthogonalLoop=1;jettySize=auto;html=1;exitX=0;exitY=0.5;exitDx=0;exitDy=0;entryX=1;entryY=0.5;entryDx=0;entryDy=0;strokeColor=#0B4D6A;" edge="1" parent="1" source="ApuZcD2Zt2GJH8bK78pd-59" target="ApuZcD2Zt2GJH8bK78pd-61">
          <mxGeometry relative="1" as="geometry" />
        </mxCell>
        <mxCell id="ApuZcD2Zt2GJH8bK78pd-68" style="edgeStyle=orthogonalEdgeStyle;curved=1;rounded=0;orthogonalLoop=1;jettySize=auto;html=1;exitX=0;exitY=1;exitDx=0;exitDy=0;entryX=1;entryY=0;entryDx=0;entryDy=0;strokeColor=#0B4D6A;" edge="1" parent="1" source="ApuZcD2Zt2GJH8bK78pd-59" target="ApuZcD2Zt2GJH8bK78pd-62">
          <mxGeometry relative="1" as="geometry" />
        </mxCell>
        <mxCell id="ApuZcD2Zt2GJH8bK78pd-59" value="name" style="ellipse;whiteSpace=wrap;html=1;strokeColor=#BAC8D3;fontColor=#EEEEEE;fillColor=#09555B;" vertex="1" parent="1">
          <mxGeometry x="135" y="400" width="50" height="40" as="geometry" />
        </mxCell>
        <mxCell id="ApuZcD2Zt2GJH8bK78pd-60" style="edgeStyle=orthogonalEdgeStyle;curved=1;rounded=0;orthogonalLoop=1;jettySize=auto;html=1;exitX=0.5;exitY=1;exitDx=0;exitDy=0;strokeColor=#0B4D6A;" edge="1" parent="1" source="ApuZcD2Zt2GJH8bK78pd-58" target="ApuZcD2Zt2GJH8bK78pd-58">
          <mxGeometry relative="1" as="geometry" />
        </mxCell>
        <mxCell id="ApuZcD2Zt2GJH8bK78pd-61" value="first_nam" style="ellipse;whiteSpace=wrap;html=1;strokeColor=#BAC8D3;fontColor=#EEEEEE;fillColor=#09555B;" vertex="1" parent="1">
          <mxGeometry x="70" y="400" width="50" height="30" as="geometry" />
        </mxCell>
        <mxCell id="ApuZcD2Zt2GJH8bK78pd-62" value="last_nam" style="ellipse;whiteSpace=wrap;html=1;strokeColor=#BAC8D3;fontColor=#EEEEEE;fillColor=#09555B;" vertex="1" parent="1">
          <mxGeometry x="70" y="440" width="50" height="30" as="geometry" />
        </mxCell>
        <mxCell id="ApuZcD2Zt2GJH8bK78pd-74" style="edgeStyle=orthogonalEdgeStyle;curved=1;rounded=0;orthogonalLoop=1;jettySize=auto;html=1;entryX=0.927;entryY=-0.03;entryDx=0;entryDy=0;entryPerimeter=0;strokeColor=#0B4D6A;" edge="1" parent="1" source="ApuZcD2Zt2GJH8bK78pd-71" target="ApuZcD2Zt2GJH8bK78pd-2">
          <mxGeometry relative="1" as="geometry" />
        </mxCell>
        <mxCell id="ApuZcD2Zt2GJH8bK78pd-71" value="name" style="ellipse;whiteSpace=wrap;html=1;strokeColor=#BAC8D3;fontColor=#EEEEEE;fillColor=#09555B;" vertex="1" parent="1">
          <mxGeometry x="770" y="310" width="60" height="40" as="geometry" />
        </mxCell>
        <mxCell id="ApuZcD2Zt2GJH8bK78pd-75" style="edgeStyle=orthogonalEdgeStyle;curved=1;rounded=0;orthogonalLoop=1;jettySize=auto;html=1;exitX=0;exitY=0.5;exitDx=0;exitDy=0;entryX=1;entryY=0.5;entryDx=0;entryDy=0;strokeColor=#0B4D6A;" edge="1" parent="1" source="ApuZcD2Zt2GJH8bK78pd-72" target="ApuZcD2Zt2GJH8bK78pd-2">
          <mxGeometry relative="1" as="geometry" />
        </mxCell>
        <mxCell id="ApuZcD2Zt2GJH8bK78pd-72" value="id&lt;br&gt;__" style="ellipse;whiteSpace=wrap;html=1;strokeColor=#BAC8D3;fontColor=#EEEEEE;fillColor=#09555B;" vertex="1" parent="1">
          <mxGeometry x="770" y="360" width="60" height="40" as="geometry" />
        </mxCell>
        <mxCell id="ApuZcD2Zt2GJH8bK78pd-76" style="edgeStyle=orthogonalEdgeStyle;curved=1;rounded=0;orthogonalLoop=1;jettySize=auto;html=1;exitX=0;exitY=0.5;exitDx=0;exitDy=0;entryX=0.86;entryY=1.01;entryDx=0;entryDy=0;entryPerimeter=0;strokeColor=#0B4D6A;" edge="1" parent="1" source="ApuZcD2Zt2GJH8bK78pd-73" target="ApuZcD2Zt2GJH8bK78pd-2">
          <mxGeometry relative="1" as="geometry" />
        </mxCell>
        <mxCell id="ApuZcD2Zt2GJH8bK78pd-73" value="number" style="ellipse;whiteSpace=wrap;html=1;strokeColor=#BAC8D3;fontColor=#EEEEEE;fillColor=#09555B;" vertex="1" parent="1">
          <mxGeometry x="770" y="410" width="60" height="40" as="geometry" />
        </mxCell>
        <mxCell id="ApuZcD2Zt2GJH8bK78pd-80" style="edgeStyle=orthogonalEdgeStyle;curved=1;rounded=0;orthogonalLoop=1;jettySize=auto;html=1;exitX=0;exitY=0.5;exitDx=0;exitDy=0;entryX=1.017;entryY=0.13;entryDx=0;entryDy=0;entryPerimeter=0;strokeColor=#0B4D6A;" edge="1" parent="1" source="ApuZcD2Zt2GJH8bK78pd-77" target="ApuZcD2Zt2GJH8bK78pd-4">
          <mxGeometry relative="1" as="geometry" />
        </mxCell>
        <mxCell id="ApuZcD2Zt2GJH8bK78pd-77" value="name" style="ellipse;whiteSpace=wrap;html=1;strokeColor=#BAC8D3;fontColor=#EEEEEE;fillColor=#09555B;" vertex="1" parent="1">
          <mxGeometry x="730" y="40" width="60" height="40" as="geometry" />
        </mxCell>
        <mxCell id="ApuZcD2Zt2GJH8bK78pd-79" style="edgeStyle=orthogonalEdgeStyle;curved=1;rounded=0;orthogonalLoop=1;jettySize=auto;html=1;exitX=0;exitY=0.5;exitDx=0;exitDy=0;entryX=1;entryY=0.75;entryDx=0;entryDy=0;strokeColor=#0B4D6A;" edge="1" parent="1" source="ApuZcD2Zt2GJH8bK78pd-78" target="ApuZcD2Zt2GJH8bK78pd-4">
          <mxGeometry relative="1" as="geometry" />
        </mxCell>
        <mxCell id="ApuZcD2Zt2GJH8bK78pd-78" value="id&lt;br&gt;__" style="ellipse;whiteSpace=wrap;html=1;strokeColor=#BAC8D3;fontColor=#EEEEEE;fillColor=#09555B;" vertex="1" parent="1">
          <mxGeometry x="730" y="100" width="60" height="40" as="geometry" />
        </mxCell>
        <mxCell id="ApuZcD2Zt2GJH8bK78pd-91" style="edgeStyle=orthogonalEdgeStyle;curved=1;rounded=0;orthogonalLoop=1;jettySize=auto;html=1;exitX=0;exitY=0;exitDx=0;exitDy=0;entryX=1;entryY=0.5;entryDx=0;entryDy=0;strokeColor=#0B4D6A;" edge="1" parent="1" source="ApuZcD2Zt2GJH8bK78pd-81" target="ApuZcD2Zt2GJH8bK78pd-85">
          <mxGeometry relative="1" as="geometry" />
        </mxCell>
        <mxCell id="ApuZcD2Zt2GJH8bK78pd-92" style="edgeStyle=orthogonalEdgeStyle;curved=1;rounded=0;orthogonalLoop=1;jettySize=auto;html=1;exitX=0;exitY=1;exitDx=0;exitDy=0;entryX=1;entryY=0;entryDx=0;entryDy=0;strokeColor=#0B4D6A;" edge="1" parent="1" source="ApuZcD2Zt2GJH8bK78pd-81" target="ApuZcD2Zt2GJH8bK78pd-86">
          <mxGeometry relative="1" as="geometry" />
        </mxCell>
        <mxCell id="ApuZcD2Zt2GJH8bK78pd-81" value="name" style="ellipse;whiteSpace=wrap;html=1;strokeColor=#BAC8D3;fontColor=#EEEEEE;fillColor=#09555B;" vertex="1" parent="1">
          <mxGeometry x="320" y="510" width="60" height="40" as="geometry" />
        </mxCell>
        <mxCell id="ApuZcD2Zt2GJH8bK78pd-82" value="id&lt;br&gt;__" style="ellipse;whiteSpace=wrap;html=1;strokeColor=#BAC8D3;fontColor=#EEEEEE;fillColor=#09555B;" vertex="1" parent="1">
          <mxGeometry x="320" y="570" width="60" height="40" as="geometry" />
        </mxCell>
        <mxCell id="ApuZcD2Zt2GJH8bK78pd-83" value="address" style="ellipse;whiteSpace=wrap;html=1;strokeColor=#BAC8D3;fontColor=#EEEEEE;fillColor=#09555B;" vertex="1" parent="1">
          <mxGeometry x="390" y="600" width="60" height="40" as="geometry" />
        </mxCell>
        <mxCell id="ApuZcD2Zt2GJH8bK78pd-84" value="number" style="ellipse;whiteSpace=wrap;html=1;strokeColor=#BAC8D3;fontColor=#EEEEEE;fillColor=#09555B;" vertex="1" parent="1">
          <mxGeometry x="470" y="600" width="60" height="40" as="geometry" />
        </mxCell>
        <mxCell id="ApuZcD2Zt2GJH8bK78pd-85" value="first_nam" style="ellipse;whiteSpace=wrap;html=1;strokeColor=#BAC8D3;fontColor=#EEEEEE;fillColor=#09555B;" vertex="1" parent="1">
          <mxGeometry x="255" y="500" width="50" height="30" as="geometry" />
        </mxCell>
        <mxCell id="ApuZcD2Zt2GJH8bK78pd-86" value="last_nam" style="ellipse;whiteSpace=wrap;html=1;strokeColor=#BAC8D3;fontColor=#EEEEEE;fillColor=#09555B;" vertex="1" parent="1">
          <mxGeometry x="255" y="540" width="50" height="30" as="geometry" />
        </mxCell>
        <mxCell id="ApuZcD2Zt2GJH8bK78pd-93" value="post" style="ellipse;whiteSpace=wrap;html=1;strokeColor=#BAC8D3;fontColor=#EEEEEE;fillColor=#09555B;" vertex="1" parent="1">
          <mxGeometry x="550" y="590" width="60" height="40" as="geometry" />
        </mxCell>
        <mxCell id="ApuZcD2Zt2GJH8bK78pd-105" value="" style="endArrow=none;html=1;rounded=0;dashed=1;dashPattern=1 2;strokeColor=#0B4D6A;entryX=0.597;entryY=-0.07;entryDx=0;entryDy=0;entryPerimeter=0;" edge="1" parent="1" target="ApuZcD2Zt2GJH8bK78pd-6">
          <mxGeometry relative="1" as="geometry">
            <mxPoint x="172" y="40" as="sourcePoint" />
            <mxPoint x="260" y="60" as="targetPoint" />
          </mxGeometry>
        </mxCell>
        <mxCell id="ApuZcD2Zt2GJH8bK78pd-106" value="N" style="resizable=0;html=1;whiteSpace=wrap;align=right;verticalAlign=bottom;strokeColor=#BAC8D3;fontColor=#EEEEEE;fillColor=#09555B;" connectable="0" vertex="1" parent="ApuZcD2Zt2GJH8bK78pd-105">
          <mxGeometry x="1" relative="1" as="geometry" />
        </mxCell>
        <mxCell id="ApuZcD2Zt2GJH8bK78pd-109" value="" style="endArrow=none;html=1;rounded=0;dashed=1;dashPattern=1 2;strokeColor=#0B4D6A;curved=1;" edge="1" parent="1">
          <mxGeometry relative="1" as="geometry">
            <mxPoint x="710" y="220" as="sourcePoint" />
            <mxPoint x="710" y="349" as="targetPoint" />
          </mxGeometry>
        </mxCell>
        <mxCell id="ApuZcD2Zt2GJH8bK78pd-110" value="1" style="resizable=0;html=1;whiteSpace=wrap;align=right;verticalAlign=bottom;strokeColor=#BAC8D3;fontColor=#EEEEEE;fillColor=#09555B;" connectable="0" vertex="1" parent="ApuZcD2Zt2GJH8bK78pd-109">
          <mxGeometry x="1" relative="1" as="geometry" />
        </mxCell>
        <mxCell id="ApuZcD2Zt2GJH8bK78pd-111" value="N" style="resizable=0;html=1;whiteSpace=wrap;align=right;verticalAlign=bottom;strokeColor=#BAC8D3;fontColor=#EEEEEE;fillColor=#09555B;" connectable="0" vertex="1" parent="1">
          <mxGeometry x="320" y="360" as="geometry">
            <mxPoint x="37" y="14" as="offset" />
          </mxGeometry>
        </mxCell>
        <mxCell id="ApuZcD2Zt2GJH8bK78pd-112" value="1" style="resizable=0;html=1;whiteSpace=wrap;align=right;verticalAlign=bottom;strokeColor=#BAC8D3;fontColor=#EEEEEE;fillColor=#09555B;" connectable="0" vertex="1" parent="1">
          <mxGeometry x="620" y="370" as="geometry">
            <mxPoint x="4" y="8" as="offset" />
          </mxGeometry>
        </mxCell>
        <mxCell id="ApuZcD2Zt2GJH8bK78pd-113" value="N" style="resizable=0;html=1;whiteSpace=wrap;align=right;verticalAlign=bottom;strokeColor=#BAC8D3;fontColor=#EEEEEE;fillColor=#09555B;" connectable="0" vertex="1" parent="1">
          <mxGeometry x="240" y="330" as="geometry">
            <mxPoint x="37" y="14" as="offset" />
          </mxGeometry>
        </mxCell>
        <mxCell id="ApuZcD2Zt2GJH8bK78pd-114" value="N" style="resizable=0;html=1;whiteSpace=wrap;align=right;verticalAlign=bottom;strokeColor=#BAC8D3;fontColor=#EEEEEE;fillColor=#09555B;" connectable="0" vertex="1" parent="1">
          <mxGeometry x="180" y="370" as="geometry">
            <mxPoint x="37" y="14" as="offset" />
          </mxGeometry>
        </mxCell>
        <mxCell id="ApuZcD2Zt2GJH8bK78pd-115" value="1" style="resizable=0;html=1;whiteSpace=wrap;align=right;verticalAlign=bottom;strokeColor=#BAC8D3;fontColor=#EEEEEE;fillColor=#09555B;" connectable="0" vertex="1" parent="1">
          <mxGeometry x="350" y="410" as="geometry" />
        </mxCell>
        <mxCell id="ApuZcD2Zt2GJH8bK78pd-116" value="N" style="resizable=0;html=1;whiteSpace=wrap;align=right;verticalAlign=bottom;strokeColor=#BAC8D3;fontColor=#EEEEEE;fillColor=#09555B;" connectable="0" vertex="1" parent="1">
          <mxGeometry x="530" y="140" as="geometry">
            <mxPoint x="37" y="14" as="offset" />
          </mxGeometry>
        </mxCell>
        <mxCell id="ApuZcD2Zt2GJH8bK78pd-117" value="N" style="resizable=0;html=1;whiteSpace=wrap;align=right;verticalAlign=bottom;strokeColor=#BAC8D3;fontColor=#EEEEEE;fillColor=#09555B;" connectable="0" vertex="1" parent="1">
          <mxGeometry x="540" y="50" as="geometry">
            <mxPoint x="37" y="14" as="offset" />
          </mxGeometry>
        </mxCell>
        <mxCell id="ApuZcD2Zt2GJH8bK78pd-118" value="N" style="resizable=0;html=1;whiteSpace=wrap;align=right;verticalAlign=bottom;strokeColor=#BAC8D3;fontColor=#EEEEEE;fillColor=#09555B;" connectable="0" vertex="1" parent="1">
          <mxGeometry x="620" y="140" as="geometry">
            <mxPoint x="37" y="14" as="offset" />
          </mxGeometry>
        </mxCell>
        <mxCell id="ApuZcD2Zt2GJH8bK78pd-119" value="N" style="resizable=0;html=1;whiteSpace=wrap;align=right;verticalAlign=bottom;strokeColor=#BAC8D3;fontColor=#EEEEEE;fillColor=#09555B;" connectable="0" vertex="1" parent="1">
          <mxGeometry x="200" y="80" as="geometry">
            <mxPoint x="37" y="14" as="offset" />
          </mxGeometry>
        </mxCell>
        <mxCell id="ApuZcD2Zt2GJH8bK78pd-120" value="N" style="resizable=0;html=1;whiteSpace=wrap;align=right;verticalAlign=bottom;strokeColor=#BAC8D3;fontColor=#EEEEEE;fillColor=#09555B;" connectable="0" vertex="1" parent="1">
          <mxGeometry x="513" y="530" as="geometry">
            <mxPoint x="37" y="14" as="offset" />
          </mxGeometry>
        </mxCell>
        <mxCell id="ApuZcD2Zt2GJH8bK78pd-121" value="1" style="resizable=0;html=1;whiteSpace=wrap;align=right;verticalAlign=bottom;strokeColor=#BAC8D3;fontColor=#EEEEEE;fillColor=#09555B;" connectable="0" vertex="1" parent="1">
          <mxGeometry x="690" y="430" as="geometry" />
        </mxCell>
        <mxCell id="ApuZcD2Zt2GJH8bK78pd-123" value="student(id,name,number,address,avg,city,college_id)&lt;br&gt;&amp;nbsp; &amp;nbsp; _&amp;nbsp; &amp;nbsp; &amp;nbsp; &amp;nbsp; &amp;nbsp; &amp;nbsp; &amp;nbsp; &amp;nbsp; &amp;nbsp; &amp;nbsp; &amp;nbsp; &amp;nbsp; &amp;nbsp; &amp;nbsp; &amp;nbsp; &amp;nbsp; &amp;nbsp; &amp;nbsp; &amp;nbsp; &amp;nbsp; &amp;nbsp; &amp;nbsp; &amp;nbsp; &amp;nbsp; &amp;nbsp; &amp;nbsp; &amp;nbsp; &amp;nbsp; f.k&lt;br&gt;course(id,name,unit,college_id)&lt;br&gt;_&amp;nbsp; &amp;nbsp; &amp;nbsp; &amp;nbsp; &amp;nbsp; &amp;nbsp; &amp;nbsp; &amp;nbsp; &amp;nbsp; &amp;nbsp; &amp;nbsp; f.k&lt;br&gt;proffessor(id,name,office,address,number&lt;br&gt;_&amp;nbsp; &amp;nbsp; &amp;nbsp; &amp;nbsp; &amp;nbsp; &amp;nbsp;,college_id)&lt;br&gt;&amp;nbsp; &amp;nbsp; &amp;nbsp; &amp;nbsp; &amp;nbsp; &amp;nbsp;f.k&lt;br&gt;college(id,number,name,city,superviser)&lt;br&gt;_&amp;nbsp; &amp;nbsp; &amp;nbsp; &amp;nbsp; &amp;nbsp; &amp;nbsp; &amp;nbsp; &amp;nbsp; &amp;nbsp; &amp;nbsp; &amp;nbsp; &amp;nbsp; &amp;nbsp; &amp;nbsp; &amp;nbsp; &amp;nbsp; &amp;nbsp;&amp;nbsp;&lt;br&gt;section(student_id,proffessor_id,course_id,term,score)&lt;br&gt;______________________________&lt;br&gt;employee(id,name,address,number,post,college_id)&lt;br&gt;&amp;nbsp; &amp;nbsp; &amp;nbsp; &amp;nbsp; &amp;nbsp; _&amp;nbsp; &amp;nbsp; &amp;nbsp; &amp;nbsp; &amp;nbsp; &amp;nbsp; &amp;nbsp; &amp;nbsp; &amp;nbsp; &amp;nbsp; &amp;nbsp; &amp;nbsp; &amp;nbsp; &amp;nbsp; &amp;nbsp; &amp;nbsp; &amp;nbsp; &amp;nbsp; &amp;nbsp; &amp;nbsp; &amp;nbsp; &amp;nbsp; &amp;nbsp; &amp;nbsp;f.k" style="shape=note;size=20;whiteSpace=wrap;html=1;strokeColor=#BAC8D3;fontColor=#EEEEEE;fillColor=#09555B;fontSize=18;" vertex="1" parent="1">
          <mxGeometry x="5" y="680" width="885" height="350" as="geometry" />
        </mxCell>
        <mxCell id="ApuZcD2Zt2GJH8bK78pd-124" value="Attribute" style="ellipse;whiteSpace=wrap;html=1;align=center;strokeColor=#BAC8D3;fontColor=#EEEEEE;fillColor=#09555B;" vertex="1" parent="1">
          <mxGeometry x="460" y="170" width="100" height="40" as="geometry" />
        </mxCell>
        <mxCell id="ApuZcD2Zt2GJH8bK78pd-130" style="edgeStyle=orthogonalEdgeStyle;curved=1;rounded=0;orthogonalLoop=1;jettySize=auto;html=1;exitX=0;exitY=0.5;exitDx=0;exitDy=0;entryX=0.75;entryY=1;entryDx=0;entryDy=0;strokeColor=#0B4D6A;" edge="1" parent="1" source="ApuZcD2Zt2GJH8bK78pd-126" target="ApuZcD2Zt2GJH8bK78pd-4">
          <mxGeometry relative="1" as="geometry" />
        </mxCell>
        <mxCell id="ApuZcD2Zt2GJH8bK78pd-126" value="unit" style="ellipse;whiteSpace=wrap;html=1;strokeColor=#BAC8D3;fontColor=#EEEEEE;fillColor=#09555B;" vertex="1" parent="1">
          <mxGeometry x="730" y="160" width="60" height="40" as="geometry" />
        </mxCell>
        <mxCell id="ApuZcD2Zt2GJH8bK78pd-129" style="edgeStyle=orthogonalEdgeStyle;curved=1;rounded=0;orthogonalLoop=1;jettySize=auto;html=1;exitX=0;exitY=1;exitDx=0;exitDy=0;strokeColor=#0B4D6A;" edge="1" parent="1" source="ApuZcD2Zt2GJH8bK78pd-128" target="ApuZcD2Zt2GJH8bK78pd-6">
          <mxGeometry relative="1" as="geometry" />
        </mxCell>
        <mxCell id="ApuZcD2Zt2GJH8bK78pd-128" value="avverage_&lt;br&gt;score" style="ellipse;whiteSpace=wrap;html=1;strokeColor=#BAC8D3;fontColor=#EEEEEE;fillColor=#09555B;" vertex="1" parent="1">
          <mxGeometry x="160" y="-10" width="60" height="40" as="geometry" />
        </mxCell>
        <mxCell id="ApuZcD2Zt2GJH8bK78pd-132" style="edgeStyle=orthogonalEdgeStyle;curved=1;rounded=0;orthogonalLoop=1;jettySize=auto;html=1;exitX=1;exitY=0;exitDx=0;exitDy=0;entryX=0.157;entryY=0.997;entryDx=0;entryDy=0;entryPerimeter=0;strokeColor=#0B4D6A;" edge="1" parent="1" source="ApuZcD2Zt2GJH8bK78pd-131" target="ApuZcD2Zt2GJH8bK78pd-3">
          <mxGeometry relative="1" as="geometry" />
        </mxCell>
        <mxCell id="ApuZcD2Zt2GJH8bK78pd-131" value="office" style="ellipse;whiteSpace=wrap;html=1;strokeColor=#BAC8D3;fontColor=#EEEEEE;fillColor=#09555B;" vertex="1" parent="1">
          <mxGeometry x="150" y="460" width="60" height="40" as="geometry" />
        </mxCell>
        <mxCell id="ApuZcD2Zt2GJH8bK78pd-134" style="edgeStyle=orthogonalEdgeStyle;curved=1;rounded=0;orthogonalLoop=1;jettySize=auto;html=1;exitX=1;exitY=0.5;exitDx=0;exitDy=0;entryX=0.25;entryY=1;entryDx=0;entryDy=0;strokeColor=#0B4D6A;" edge="1" parent="1" source="ApuZcD2Zt2GJH8bK78pd-133" target="ApuZcD2Zt2GJH8bK78pd-2">
          <mxGeometry relative="1" as="geometry" />
        </mxCell>
        <mxCell id="ApuZcD2Zt2GJH8bK78pd-133" value="superviser" style="ellipse;whiteSpace=wrap;html=1;strokeColor=#BAC8D3;fontColor=#EEEEEE;fillColor=#09555B;" vertex="1" parent="1">
          <mxGeometry x="570" y="420" width="60" height="40" as="geometry" />
        </mxCell>
      </root>
    </mxGraphModel>
  </diagram>
</mxfile>
